<svg width="76" height="35" viewBox="0 0 76 35" fill="none" xmlns="http://www.w3.org/2000/svg">
<path d="M3.368 16.88V4.496H5.546V6.08C6.386 4.892 7.46 4.298 8.768 4.298C9.968 4.298 11.006 4.748 11.882 5.648C12.758 6.536 13.196 7.742 13.196 9.266C13.196 10.766 12.758 11.966 11.882 12.866C11.006 13.754 9.968 14.198 8.768 14.198C7.46 14.198 6.386 13.64 5.546 12.524V16.88H3.368ZM8.264 12.308C9.032 12.308 9.674 12.026 10.19 11.462C10.718 10.898 10.982 10.154 10.982 9.23C10.982 8.33 10.718 7.598 10.19 7.034C9.662 6.47 9.02 6.188 8.264 6.188C7.508 6.188 6.854 6.476 6.302 7.052C5.762 7.628 5.492 8.366 5.492 9.266C5.492 10.154 5.762 10.886 6.302 11.462C6.854 12.026 7.508 12.308 8.264 12.308ZM19.7826 14.216C18.3906 14.216 17.2266 13.754 16.2906 12.83C15.3666 11.906 14.9046 10.712 14.9046 9.248C14.9046 7.868 15.3426 6.698 16.2186 5.738C17.0946 4.778 18.2046 4.298 19.5486 4.298C20.9886 4.298 22.1046 4.79 22.8966 5.774C23.7006 6.746 24.1026 7.958 24.1026 9.41C24.1026 9.674 24.0906 9.878 24.0666 10.022H17.0826C17.2026 10.778 17.5086 11.372 18.0006 11.804C18.4926 12.224 19.0986 12.434 19.8186 12.434C20.7546 12.434 21.6126 12.056 22.3926 11.3L23.6706 12.434C22.6866 13.622 21.3906 14.216 19.7826 14.216ZM17.0646 8.582H21.9426C21.8706 7.85 21.6246 7.25 21.2046 6.782C20.7846 6.314 20.2266 6.08 19.5306 6.08C18.8706 6.08 18.3186 6.314 17.8746 6.782C17.4306 7.238 17.1606 7.838 17.0646 8.582ZM26.2899 14V4.496H28.4499L31.4199 8.906L34.4079 4.496H36.5679V14H34.3719V7.664L31.3839 11.93L28.4139 7.7V14H26.2899ZM43.8157 14.216C42.3757 14.216 41.1757 13.736 40.2157 12.776C39.2557 11.816 38.7757 10.646 38.7757 9.266C38.7757 7.886 39.2617 6.716 40.2337 5.756C41.2057 4.784 42.4117 4.298 43.8517 4.298C45.2917 4.298 46.4917 4.778 47.4517 5.738C48.4237 6.698 48.9097 7.874 48.9097 9.266C48.9097 10.634 48.4237 11.804 47.4517 12.776C46.4797 13.736 45.2677 14.216 43.8157 14.216ZM43.8517 12.326C44.7157 12.326 45.4117 12.032 45.9397 11.444C46.4677 10.856 46.7317 10.13 46.7317 9.266C46.7317 8.414 46.4557 7.694 45.9037 7.106C45.3517 6.506 44.6557 6.206 43.8157 6.206C42.9637 6.206 42.2737 6.5 41.7457 7.088C41.2177 7.676 40.9537 8.402 40.9537 9.266C40.9537 10.106 41.2297 10.826 41.7817 11.426C42.3337 12.026 43.0237 12.326 43.8517 12.326ZM51.1278 14V4.496H53.3058V8.348H57.4998V4.496H59.6778V14H57.4998V10.166H53.3058V14H51.1278ZM64.4469 14V6.368H61.3869V4.496H69.7029V6.368H66.6429V14H64.4469Z" fill="#FFC805"/>
<path d="M5.886 32.216C4.446 32.216 3.246 31.736 2.286 30.776C1.326 29.816 0.846 28.646 0.846 27.266C0.846 25.886 1.332 24.716 2.304 23.756C3.276 22.784 4.482 22.298 5.922 22.298C7.362 22.298 8.562 22.778 9.522 23.738C10.494 24.698 10.98 25.874 10.98 27.266C10.98 28.634 10.494 29.804 9.522 30.776C8.55 31.736 7.338 32.216 5.886 32.216ZM5.922 30.326C6.786 30.326 7.482 30.032 8.01 29.444C8.538 28.856 8.802 28.13 8.802 27.266C8.802 26.414 8.526 25.694 7.974 25.106C7.422 24.506 6.726 24.206 5.886 24.206C5.034 24.206 4.344 24.5 3.816 25.088C3.288 25.676 3.024 26.402 3.024 27.266C3.024 28.106 3.3 28.826 3.852 29.426C4.404 30.026 5.094 30.326 5.922 30.326ZM15.2321 32V24.368H12.1721V22.496H20.4881V24.368H17.4281V32H15.2321ZM21.1177 34.286V30.128H22.1437C22.8517 28.712 23.2057 26.558 23.2057 23.666V22.496H30.5677V30.128H31.9177L31.6297 34.286H29.8117V32H23.1517L22.9357 34.286H21.1177ZM24.3757 30.128H28.3897V24.368H25.2577V25.628C25.2577 27.392 24.9637 28.892 24.3757 30.128ZM38.0853 32.216C36.6933 32.216 35.5293 31.754 34.5933 30.83C33.6693 29.906 33.2073 28.712 33.2073 27.248C33.2073 25.868 33.6453 24.698 34.5213 23.738C35.3973 22.778 36.5073 22.298 37.8513 22.298C39.2913 22.298 40.4073 22.79 41.1993 23.774C42.0033 24.746 42.4053 25.958 42.4053 27.41C42.4053 27.674 42.3933 27.878 42.3693 28.022H35.3853C35.5053 28.778 35.8113 29.372 36.3033 29.804C36.7953 30.224 37.4013 30.434 38.1213 30.434C39.0573 30.434 39.9153 30.056 40.6953 29.3L41.9733 30.434C40.9893 31.622 39.6933 32.216 38.0853 32.216ZM35.3673 26.582H40.2453C40.1733 25.85 39.9273 25.25 39.5073 24.782C39.0873 24.314 38.5293 24.08 37.8333 24.08C37.1733 24.08 36.6213 24.314 36.1773 24.782C35.7333 25.238 35.4633 25.838 35.3673 26.582ZM44.5206 32.108C44.1726 32.108 43.7466 32.066 43.2426 31.982L43.4046 30.2C43.5966 30.248 43.8066 30.272 44.0346 30.272C44.2866 30.272 44.4906 30.236 44.6466 30.164C44.8146 30.092 44.9826 29.912 45.1506 29.624C45.3306 29.324 45.4686 28.904 45.5646 28.364C45.6606 27.824 45.7386 27.068 45.7986 26.096C45.8586 25.112 45.8886 23.912 45.8886 22.496H53.0706V32H50.8926V24.368H47.9226C47.9226 25.724 47.8686 26.876 47.7606 27.824C47.6526 28.772 47.5086 29.522 47.3286 30.074C47.1606 30.626 46.9206 31.058 46.6086 31.37C46.3086 31.67 46.0026 31.868 45.6906 31.964C45.3786 32.06 44.9886 32.108 44.5206 32.108ZM55.8075 32V22.496H57.9675V27.05L62.1075 22.496H64.6635L60.9735 26.492L64.9695 32H62.3955L59.5155 28.076L57.9675 29.714V32H55.8075ZM74.4514 32H72.2914V30.83C71.5234 31.742 70.4974 32.198 69.2134 32.198C68.2654 32.198 67.4614 31.94 66.8014 31.424C66.1534 30.896 65.8294 30.164 65.8294 29.228C65.8294 28.208 66.1834 27.434 66.8914 26.906C67.5994 26.378 68.5294 26.114 69.6814 26.114C70.6054 26.114 71.4814 26.246 72.3094 26.51V26.33C72.3094 25.67 72.1054 25.166 71.6974 24.818C71.3014 24.47 70.7254 24.296 69.9694 24.296C69.1054 24.296 68.1994 24.494 67.2514 24.89L66.6574 23.144C67.8334 22.616 69.0394 22.352 70.2754 22.352C71.6554 22.352 72.6934 22.7 73.3894 23.396C74.0974 24.092 74.4514 25.082 74.4514 26.366V32ZM72.3454 28.562V28.022C71.6974 27.77 70.9714 27.644 70.1674 27.644C69.4834 27.644 68.9494 27.776 68.5654 28.04C68.1814 28.304 67.9894 28.676 67.9894 29.156C67.9894 29.588 68.1634 29.93 68.5114 30.182C68.8594 30.434 69.2974 30.56 69.8254 30.56C70.5574 30.56 71.1574 30.374 71.6254 30.002C72.1054 29.63 72.3454 29.15 72.3454 28.562Z" fill="#FFC805"/>
<rect y="19" width="75" height="1" fill="#7CB1FF"/>
</svg>
